<svg xmlns="http://www.w3.org/2000/svg" viewBox="-34 -34 1068 1106.75" role="img" aria-label="Route 47 Low Voltage">
<clipPath id="c"><path d="M500 -1.01C399.21 56.93 287.26 66.98 186.5 2.99L-1.03 181.69C8.42 194.76 17.47 208.07 26.4 221.5C77.1 297.71 89.88 390.86 60.12 477.67C50.28 506.37 35.6 532.86 24.31 560.93C-1.5 625.09 -8.14 700.28 11.94 766.72C23 803.31 41.71 835.93 67.64 864.02C160.18 964.24 285.51 938.85 401.04 982.97C437.59 996.93 469.19 1016.83 500 1040.58C530.81 1016.83 562.41 996.93 598.96 982.97C714.49 938.85 839.82 964.24 932.36 864.02C958.29 835.93 977 803.31 988.06 766.72C1008.14 700.28 1001.5 625.09 975.69 560.93C964.4 532.86 949.72 506.37 939.88 477.67C910.12 390.86 922.9 297.71 973.6 221.5C982.53 208.07 991.58 194.76 1001.03 181.69L813.5 2.99C712.74 66.98 600.79 56.93 500 -1.01Z"/></clipPath>
<path d="M500 -1.01C399.21 56.93 287.26 66.98 186.5 2.99L-1.03 181.69C8.42 194.76 17.47 208.07 26.4 221.5C77.1 297.71 89.88 390.86 60.12 477.67C50.28 506.37 35.6 532.86 24.31 560.93C-1.5 625.09 -8.14 700.28 11.94 766.72C23 803.31 41.71 835.93 67.64 864.02C160.18 964.24 285.51 938.85 401.04 982.97C437.59 996.93 469.19 1016.83 500 1040.58C530.81 1016.83 562.41 996.93 598.96 982.97C714.49 938.85 839.82 964.24 932.36 864.02C958.29 835.93 977 803.31 988.06 766.72C1008.14 700.28 1001.5 625.09 975.69 560.93C964.4 532.86 949.72 506.37 939.88 477.67C910.12 390.86 922.9 297.71 973.6 221.5C982.53 208.07 991.58 194.76 1001.03 181.69L813.5 2.99C712.74 66.98 600.79 56.93 500 -1.01Z" fill="none" stroke="#f7f5f0" stroke-width="68" stroke-linejoin="round"/>
<g clip-path="url(#c)">
<rect width="1000" height="1038.75" fill="#9faea3"/>
<rect width="1000" height="307.34" fill="#dbab72"/>
<rect y="291.13" width="1000" height="32.42" fill="#1a1612"/>
<path d="M500 -1.01C399.21 56.93 287.26 66.98 186.5 2.99L-1.03 181.69C8.42 194.76 17.47 208.07 26.4 221.5C77.1 297.71 89.88 390.86 60.12 477.67C50.28 506.37 35.6 532.86 24.31 560.93C-1.5 625.09 -8.14 700.28 11.94 766.72C23 803.31 41.71 835.93 67.64 864.02C160.18 964.24 285.51 938.85 401.04 982.97C437.59 996.93 469.19 1016.83 500 1040.58C530.81 1016.83 562.41 996.93 598.96 982.97C714.49 938.85 839.82 964.24 932.36 864.02C958.29 835.93 977 803.31 988.06 766.72C1008.14 700.28 1001.5 625.09 975.69 560.93C964.4 532.86 949.72 506.37 939.88 477.67C910.12 390.86 922.9 297.71 973.6 221.5C982.53 208.07 991.58 194.76 1001.03 181.69L813.5 2.99C712.74 66.98 600.79 56.93 500 -1.01Z" fill="none" stroke="#1a1612" stroke-width="62.26" stroke-linejoin="miter" stroke-miterlimit="20"/>
</g>
<g fill="#1a1612"><path d="M236.71 250.22L211.15 250.22L211.15 126.01L270.24 126.01Q285.86 126.01 295.04 131.47Q304.22 136.93 308.17 145.93Q312.12 154.94 312.12 165.41L312.12 165.41Q312.12 172.41 309.5 179.6Q306.88 186.79 301.65 192.69Q296.41 198.59 288.7 201.43L288.7 201.43L312.47 250.22L283.9 250.22L261.01 205.24L236.71 205.24L236.71 250.22M236.71 150.06L236.71 181.2L270.6 181.2Q276.27 181.2 279.6 178.98Q282.93 176.76 284.3 173.17Q285.68 169.58 285.68 165.49L285.68 165.49Q285.68 161.77 284.39 158.22Q283.11 154.67 279.78 152.36Q276.45 150.06 270.6 150.06L270.6 150.06L236.71 150.06M383.82 252.35L383.82 252.35Q368.92 252.35 358.45 246.72Q347.98 241.08 341.55 231.72Q335.11 222.36 332.14 211.01Q329.17 199.65 329.17 188.12L329.17 188.12Q329.17 176.58 332.14 165.23Q335.11 153.87 341.55 144.51Q347.98 135.15 358.45 129.52Q368.92 123.89 383.82 123.89L383.82 123.89Q398.9 123.89 409.28 129.52Q419.66 135.15 426.09 144.51Q432.53 153.87 435.45 165.23Q438.38 176.58 438.38 188.12L438.38 188.12Q438.38 199.65 435.45 211.01Q432.53 222.36 426.09 231.72Q419.66 241.08 409.28 246.72Q398.9 252.35 383.82 252.35M383.82 227.69L383.82 227.69Q391.63 227.69 396.99 224.05Q402.36 220.41 405.64 214.42Q408.93 208.43 410.44 201.51Q411.94 194.59 411.94 188.12L411.94 188.12Q411.94 181.2 410.52 174.19Q409.1 167.18 405.87 161.32Q402.63 155.47 397.22 151.92Q391.8 148.37 383.82 148.37L383.82 148.37Q375.84 148.37 370.42 152.05Q365.01 155.74 361.73 161.68Q358.45 167.62 357.03 174.63Q355.61 181.64 355.61 188.12L355.61 188.12Q355.61 194.95 357.07 201.91Q358.53 208.88 361.86 214.73Q365.19 220.59 370.6 224.14Q376.01 227.69 383.82 227.69M510.52 252.35L510.52 252.35Q494.73 252.35 483.28 246.5Q471.84 240.64 465.72 229.51Q459.6 218.37 459.6 202.58L459.6 202.58L459.6 126.01L485.15 126.01L485.15 202.58Q485.15 216.06 491.22 221.88Q497.3 227.69 510.52 227.69L510.52 227.69Q518.86 227.69 524.49 225.29Q530.13 222.9 532.97 217.35Q535.81 211.81 535.81 202.58L535.81 202.58L535.81 126.01L561.36 126.01L561.36 202.58Q561.36 216.15 557.14 225.65Q552.93 235.14 545.74 241.04Q538.56 246.94 529.46 249.64Q520.37 252.35 510.52 252.35M641.68 250.22L616.13 250.22L616.13 150.5L580.64 150.5L580.64 126.01L677.25 126.01L677.25 150.5L641.68 150.5L641.68 250.22M788.15 250.22L697.21 250.22L697.21 126.01L784.51 126.01L784.51 150.23L722.76 150.23L722.76 174.01L757.98 174.01L757.98 198.23L722.76 198.23L722.76 225.82L788.15 225.82L788.15 250.22"/><path d="M429.2 424.88L429.2 662.75L474.81 662.75L474.81 729.61L429.23 729.61L429.23 823.44L356.83 823.44L356.83 729.37L161.6 729.37L161.6 672.61L355.83 424.88L429.2 424.88ZM357.01 523.4L357.01 662.76L251.46 662.76L357.01 523.4ZM801.74 424.91L801.74 487.29C788.42 513.01 769.62 535.42 754.96 560.4C707.77 640.78 676.21 729.08 673.92 823.79L597.9 823.79C602.87 703.26 648.86 591.06 719.89 495.17L519.95 495.17L519.95 424.91L801.74 424.91Z" fill-rule="evenodd"/><path d="M475.38 937.6L459.78 937.6L459.78 861.78L475.38 861.78L475.38 937.6M545.48 937.6L493.43 937.6L493.43 861.78L509.03 861.78L509.03 922.54L545.48 922.54L545.48 937.6"/></g>
</svg>
